<?xml version="1.0" encoding="utf-8"?>
<!-- Generator: Adobe Illustrator 28.0.0, SVG Export Plug-In . SVG Version: 6.00 Build 0)  -->
<svg version="1.1" id="Layer_1" xmlns="http://www.w3.org/2000/svg" xmlns:xlink="http://www.w3.org/1999/xlink" x="0px" y="0px"
	 viewBox="0 0 330.4 150.7" style="enable-background:new 0 0 330.4 150.7;" xml:space="preserve">
<style type="text/css">
	.st0{fill:#6C6B6B;}
	.st1{display:none;}
	.st2{display:inline;}
	.st3{fill:#B51385;}
	.st4{fill:#9E55D8;}
</style>
<g>
	<g>
		<g>
			<path class="st0" d="M52.3,53.8h-7.7V18.9h-0.1l-2.8,6.8L26.2,54.5H26l-15.5-29l-2.7-6.6H7.7v34.9H0V2.2h6.6l17,32.1l2.5,6.1h0.1
				l2.5-6.1L45.8,2.2h6.4L52.3,53.8L52.3,53.8z"/>
			<path class="st0" d="M113.2,53.8h-8.3l-5.4-12l0.4-0.7H72.3l0.4,0.7l-5.4,12H59L82.4,2.2h7.5L113.2,53.8z M96.3,34.1l-0.8-0.8
				l-7.9-17.5l-1.5-4.7H86l-1.5,4.6l-8,17.6l-0.8,0.8H96.3L96.3,34.1z"/>
			<path class="st0" d="M166,53.8h-8.5l-6.7-13.6c-2.4-4.8-5.9-7-12.4-7h-11.6l0.8,0.7v20h-7.7V2.3h23.4c9.8,0,18.2,5.1,18.2,15.5
				c0,6.3-4.5,11.2-9.7,13v0.1c2.1,0.9,4.5,3.1,6,6.2L166,53.8z M143.3,9.3h-16.5l0.8,0.8v15.2l-0.8,0.8h15.9c7.1,0,11-3.6,11-8.4
				C153.6,11.6,149.4,9.3,143.3,9.3z"/>
			<path class="st0" d="M180.1,53.8h-7.7V2.2h7.7V53.8z"/>
			<path class="st0" d="M235.8,53.8H229l-25.9-33.4l-3.6-5.9h-0.1v39.3h-7.7V2.2h6.8l26,33.5l3.4,5.8h0.1V2.2h7.7L235.8,53.8
				L235.8,53.8z"/>
			<path class="st0" d="M296.8,53.8h-8.3l-5.4-12l0.4-0.7H256l0.4,0.7l-5.4,12h-8.3l23.4-51.6h7.5L296.8,53.8z M279.9,34.1l-0.8-0.8
				l-7.9-17.5l-1.5-4.7h-0.1l-1.5,4.6l-8,17.6l-0.8,0.8H279.9L279.9,34.1z"/>
		</g>
	</g>
	<g class="st1">
		<g class="st2">
			<path class="st3" d="M172.5-71.8c-2.7-1.8-3.6-3.8-3.8-6.6c0-0.5,0-1.1-0.1-1.7c-1.5-11.9-10.7-22.9-26.2-19.5
				c-3.1,0.7-5,0-6.9-1.9c-3.4-3.5-7.8-5.2-12.5-6.2c-5.6-1.2-10.7,0-15.2,3.5c-2.5,2-4.9,4.2-6.3,7c-1,1.9-2.3,2.4-4.2,2.5
				c-4.7,0.2-9.2,1.3-13.4,3.8c-7.3,4.5-11.4,12-9.6,20.4c1,4.5-0.2,7.4-2.9,11c-8.3,10.8-7.3,24.1,5.3,32.1c2,1.2,3.1,2.5,2.9,4.8
				c-0.1,0.8,0,1.7,0.1,2.5C81.2-8.3,90.1,3.3,106.1-0.4c3-0.7,4.7,0.1,6.5,1.9c4.6,4.5,10.2,6.4,15.3,6.7c8.1,0,14.3-3.3,18.3-10
				c1.6-2.6,3.3-3.8,6.2-3.6c1.2,0.1,2.5-0.2,3.7-0.5c12.6-2.1,20.4-12.9,17.8-25.3c-0.7-3.3-0.2-5.5,2-7.7c0.5-0.5,0.9-1,1.3-1.6
				C185.4-51.8,184-64.1,172.5-71.8z M133.4-90.1c4.3-4.1,13.8-4.7,19-1.6c4.5,2.8,7.4,6.5,8.5,11.7c0.3,1.4,1.1,3.1-0.6,4.1
				c-1.3,0.8-4.2-0.3-5.2-1.9c-1.5-2.4-3.4-4.3-6-5.6c-2.1-1.1-4.4-1.6-6.9-1.4c-0.5,0-1.1-0.2-1.6,0c-3.9,1.7-5.3-1.8-7.5-3.6
				C132.6-88.9,132.8-89.5,133.4-90.1z M121.6-68.5c-0.8,2.4-0.5,4.9-1.1,7.3c-0.3,1.1-0.4,2-1.3,2.8c-2.1,1.6-2.1,1.8-3.6-0.6
				c-1.2-1.8-2.4-3.7-3.3-5.7c-3-6.6,1-15.9,7.8-18.5c3.8-1.4,7.2-0.1,11.4,1.6C126.4-78,123.3-73.9,121.6-68.5z M144.7-76.5
				c3.6,1.9,5.6,5,6.6,8.9c-0.5,0.1-0.8,0.2-1,0.2c-7.9-1.1-14.6,1.3-20.4,6.7c-0.7,0.6-1.2,1.5-2.4,1.4c-2.8-0.2-3.7-1.1-3-3.9
				c0.6-2.4,1.6-4.6,2.4-7C129-76.5,140.1-78.9,144.7-76.5z M116.9-42.6c-2.4,2.2-5.4,3.5-8.3,4.9c-5.6,2.6-12-0.5-15.8-5
				c-3.2-3.9-3.5-8.2-0.2-14.3c3.4,4.5,7.2,7.8,12.3,9.4c2,0.6,4,1.1,6.1,1C113.9-46.8,115.9-45.7,116.9-42.6z M112.5-34.8
				c2.4-1.2,4.4-2.8,6.2-4.7c1.7-1.9,3.3-0.5,4.9-0.3c0.7,0.1,0.6,1.1,0.4,1.8c-0.8,2.6-1.3,5.4-2.3,7.9c-2.6,6.1-11.8,9.6-17.8,7
				c-3.8-1.7-5.7-4.9-7.2-9.4C102.7-31.6,107.7-32.3,112.5-34.8z M126.7-31.2c0.7-2.4,1.1-4.9,1-7.4c-0.1-2.4,1.8-2.9,3.2-3.8
				c0.7-0.5,1.2,0.3,1.6,0.9c1.6,2.5,3.2,5.2,4.2,8c1.8,5,0,9.3-3.2,13c-4.7,5.4-8.8,5.9-16.5,2.3C121.9-21.7,125.1-25.8,126.7-31.2
				z M131.4-57.2c2.3-2.2,5.4-3.5,8.3-4.9c7.3-3.5,15.8,2.8,17.8,7.9c1.5,3.9,0.4,7.5-1.7,11.6c-3.5-5-7.5-8.2-12.7-9.8
				c-1.7-0.5-3.4-1.1-5.2-0.9C134.8-52.9,132.6-54,131.4-57.2z M102.2-85.2c1.5-4.7,3.2-9.3,7.2-12.3c2.9-2.2,6.7-2.5,10.3-2.5
				c4.7,0,8.8,1.9,12.2,5.3c-2,3.1-4.1,3.8-7.3,3.2c-5.6-1-10.3,1-13.7,5.7c-0.7,1-1.1,2.4-2.7,2.4c-1.8,0-3.6,0.1-5.4-0.1
				C102-83.6,102-84.5,102.2-85.2z M106.7-77.1c-0.1,2.5-0.8,4.9-0.3,7.4c0.9,5.3,3,10,6.8,13.9c0.6,0.7,1.5,1.1,1.7,2.3
				c0.2,2.9-1,4-3.9,3.3c-2.1-0.5-4.2-1.3-6.2-2c-6.1-2-8.1-8.8-7.8-15C97.2-71.9,100.5-75.4,106.7-77.1z M80.5-74.1
				c1.8-6.1,6.2-10.7,12.8-12.4c0.4-0.1,0.8-0.2,1.2-0.2c1.3-0.2,2.7-1.1,3.8,0.3c0.7,0.9-0.5,4.8-1.6,5.5
				c-5.9,3.6-8.1,8.8-7.1,15.5c0.3,1.9-0.2,3.1-1.6,4.3c-1,0.9-1.8,2-3,3.4C81.3-63.1,78.8-68.4,80.5-74.1z M74.6-40.4
				c-1.3-5.3-0.4-10.1,2.5-14.6c0.7-1.1,1.4-3,3-2.1c1.4,0.8,3.1,2,2.8,4.4c-0.4,2.1-1,4.3-0.5,6.7c0.8,3.5,2.1,6.7,5.2,8.6
				c3.5,2.1,2.9,5.2,2.8,8.4c0,0.9-0.6,1.1-1.4,1.1C83-28.2,76-34.5,74.6-40.4z M101.8-5.8c-4.7-0.2-8-3.5-11-6.7
				c-2.1-2.3-3-5.2-3.6-8.3c-0.2-1-0.6-2.2,0.5-3.1c0.7-0.6,4.4,0,5,0.8c0.4,0.5,0.7,1.2,1.1,1.7c3.2,4.5,7.5,7.1,13.1,6.2
				c3.3-0.5,5.5,0.5,7.5,2.9c0.4,0.5,1.2,0.8,2.3,1.5C111.5-7.3,106.9-5.6,101.8-5.8z M134.7-0.5c-7,1.8-13,0.5-18.3-4.7
				c2-3,4.3-3.6,7.4-3c5.3,1.1,10.2-0.6,13-5.2c2.3-3.5,5.4-2.5,8.3-2.9c1-0.1,1,0.8,1,1.5C146.1-9.6,139.8-1.9,134.7-0.5z
				 M141.5-22.6c1-5.7,0.3-10.8-2.1-15.6c-1.2-2.3-2.8-4.1-4.4-5.9c-0.9-1-1.5-1.8-1.2-3.2c0.5-2.5,0.7-2.7,3.3-2.1
				c2,0.4,4,0.9,6,1.6c6.8,2.4,10.8,11.8,7.9,18.5C149.7-26.6,146.5-24.1,141.5-22.6z M168-25.1c-3,6.3-7.4,10.9-14.5,12.2
				c-1.1,0.2-2.8,0.9-3.2-0.7c-0.3-1.5-0.8-3.3,0.6-4.7c0.7-0.7,1.6-1.1,2.4-1.6c4.4-3.3,6.6-7.8,5.8-13.3c-0.4-2.6-0.2-4.5,2-6
				c0.9-0.6,1.2-1.8,2.9-2.4c2.9,4.2,4.3,8.7,4.5,13.6C168.5-27,168.4-26,168-25.1z M171-44.4c-0.7,1-1.4,2.6-2.7,1.8
				s-2.8-1.9-2.9-3.7c0-0.7,0.4-1.3,0.5-2c0.9-5.9-0.5-10.9-5.6-14.6c-2.4-1.7-3.3-4.9-2.4-7.6c0.5-1.6,1.7-1.1,2.7-0.9
				c8.7,1.9,13.8,8.1,13.8,18C174.3-50.8,173-47.5,171-44.4z"/>
			<path class="st3" d="M71.8-24.7c-1.7-0.1-2.8,0.8-3,2.6c-0.2,1.9,1.3,3.7,3,3.7c1.6,0,3-1.5,3.1-3.2S73.7-24.6,71.8-24.7z"/>
			<path class="st3" d="M96.1-99.2c1.6,0,2.9-1.4,3-3.3c0-1.7-1-2.9-2.7-2.9c-1.8-0.1-3.6,1.6-3.6,3.2
				C92.8-100.6,94.4-99.1,96.1-99.2z"/>
			<path class="st3" d="M140.9-103.9c1.8,0.1,3.5-1.1,3.6-2.6c0.2-1.7-1.5-3.4-3.3-3.5c-1.7-0.1-2.9,1-3,2.7
				C138-105.5,139.2-104,140.9-103.9z"/>
			<path class="st3" d="M177.1-75c1.6-0.1,2.7-1.3,2.6-3.1c-0.1-1.7-1.6-3.3-3.1-3.3c-1.6,0-3,1.6-3.1,3.3
				C173.5-76.3,175.1-74.9,177.1-75z"/>
			<path class="st3" d="M67.4-64c1.7-0.2,2.9-1.4,2.8-2.9c0-1.8-1.5-3.4-3.1-3.3c-1.6,0.1-3,1.7-3.1,3.4
				C64.1-65.1,65.5-63.8,67.4-64z"/>
			<path class="st3" d="M152.3-0.6c-1.7,0-3.1,1.8-2.9,3.7c0.1,1.6,1.5,2.6,3.1,2.5c1.7-0.2,3.2-1.7,3.2-3.2
				C155.6,0.8,153.9-0.7,152.3-0.6z"/>
			<path class="st3" d="M107.5,4.1c-1.8-0.1-3.7,1.5-3.7,3s1.7,2.9,3.3,3c1.7,0.1,2.9-1,3-2.6C110.3,5.7,109.1,4.2,107.5,4.1z"/>
			<path class="st3" d="M181.5-35.8c-1.9-0.1-3.3,1.1-3.4,2.8c0,1.8,1.3,3.5,2.9,3.5c1.5,0,3-1.6,3.1-3.3
				C184.3-34.5,183.2-35.7,181.5-35.8z"/>
		</g>
	</g>
</g>
<g>
	<g>
		<path class="st4" d="M70.9,150.7c-0.9,0-1.3-0.4-1.3-1.1c0-0.3,0.1-0.7,0.3-1.2c0.9-1.9,2.1-4.7,3.7-8.4c1.6-3.7,3.3-8,5.3-12.8
			c1.9-4.8,3.8-9.8,5.8-14.8c1.7-4.5,3.4-8.9,5-13.1s3-8.1,4.1-11.6s1.6-6.1,1.6-8c0-0.6,0.4-0.9,1.2-1c0.8-0.1,1.5-0.2,2.3-0.2
			c2.4,0,3.6,0.8,3.6,2.4c0,1.3-0.7,3-2.2,5.1c-1.3,2.1-2.4,4.2-3.4,6.5S95,97,94.1,99.3c1.7-2.3,3.4-4.6,4.9-6.8
			c1.5-2.2,3.3-4.2,5.3-5.8c1.6-1.2,3.2-2.2,4.7-3s3.2-1.1,5-1.1c1.9,0,3.8,0.5,5.6,1.4c1.8,0.9,3,2.3,3.3,4.3
			c0.1,0.2,0.1,0.5,0.1,0.7s0,0.5,0,0.7c0,2.5-0.7,5-2.2,7.4s-3.2,4.6-5.3,6.5c-2,1.9-3.9,3.4-5.6,4.6c-6.7,4-8.9,4.5-5.3,2.8
			c-2.1,1-4.2,1.9-6.5,2.6s-4.5,1.1-6.6,1.1c-1.3,0-2.4-0.2-3.3-0.4c-0.9,2.2-2,5-3.3,8.4s-2.4,6.8-3.5,10.2
			c-0.5,1.5-0.7,2.6-0.5,3.5s0,2-0.5,3.4c-0.4,1.5-0.9,2.8-1.4,4.2c-0.5,1.3-1.1,2.6-1.7,3.8c-0.1,0.3-0.6,0.7-1.4,1.2
			s-1.6,0.9-2.6,1.3C72.5,150.5,71.6,150.7,70.9,150.7z M89.2,112.4c2.3,0,4.7-0.5,7.3-1.6c2.5-1.1,5-2.5,7.5-4.3s4.7-3.8,6.7-5.9
			s3.6-4.2,4.8-6.2c1.5-2.3,2.2-4.5,2.2-6.4c0-2.2-1-3.4-2.9-3.4c-0.5,0-1.1,0.1-1.8,0.3c-0.7,0.2-1.6,0.5-2.5,1
			c-3.8,2-7,4.4-9.4,7.1c-2.5,2.7-4.6,5.7-6.3,9C92.9,105.1,91.1,108.6,89.2,112.4z"/>
		<path class="st4" d="M137.5,114.7c-1.3,0-2.5-0.3-3.5-0.9s-1.8-1.7-2.3-3.3c-0.1-0.2-0.1-0.4-0.2-0.7c0-0.2,0-0.5,0-0.8
			c0-1.5,0.3-3.3,1-5.4c0.7-2.2,1.5-4.3,2.4-6.3c-0.4,0.6-0.9,1.3-1.5,2.1s-1.4,1.9-2.5,3.2c-0.3,0.3-0.6,0.4-1,0.4
			c-0.5,0-0.8-0.3-0.8-0.9c0-0.4,0.1-0.8,0.4-1.1c1.9-2.4,3.6-4.5,5-6.4c1.5-1.9,2.6-3.5,3.3-4.8c0-0.1,0-0.1,0-0.2c0,0,0-0.1,0-0.2
			c0-0.2,0.1-0.5,0.3-1c0.6-1.7,1.2-3.2,1.8-4.4c0.6-1.2,1.3-1.9,2-2c0.1,0,0.3,0,0.4,0c0.1,0,0.3,0,0.4,0c0.8,0,1.5,0.2,2.2,0.5
			c0.7,0.4,1,0.9,1,1.6s-0.2,1.5-0.7,2.4s-1.1,2.1-1.8,3.5c-1.6,3.3-3,6.3-4.3,9.1c-1.3,2.7-2,4.9-2.1,6.7c-0.1,0.3-0.1,0.6-0.1,0.8
			s0,0.5,0,0.8c0,2.9,0.9,4.3,2.8,4.3c1.2,0,2.6-0.6,4.5-1.9s3.7-2.8,5.5-4.7c1.9-1.8,3.6-3.6,5.2-5.3s2.6-3,3.2-3.8
			c0.2-0.2,0.4-0.3,0.7-0.3s0.5,0.1,0.7,0.3c0.2,0.2,0.2,0.5,0,0.9c-0.7,1.2-1.8,2.8-3.3,4.6c-1.6,1.8-3.3,3.7-5.2,5.5
			s-3.8,3.4-5.6,4.7c-0.9,0.7-2.1,1.4-3.5,1.9C140.3,114.4,138.9,114.7,137.5,114.7z M149.3,75.8c-0.9,0-1.9-0.1-2.9-0.3
			s-1.5-0.8-1.5-2c0-0.2,0.5-0.7,1.5-1.5s2-1.6,3-2.4s1.7-1.3,1.9-1.5c1.2-1,2-1.5,2.3-1.5c0.4,0,0.4,0.5,0,1.4s-0.5,1.8-0.5,2.5
			c0,0.4-0.2,1-0.7,1.8c-0.4,0.9-0.9,1.7-1.5,2.4S149.7,75.8,149.3,75.8z"/>
		<path class="st4" d="M164.3,114.7c-3,0-5.2-0.8-6.3-2.3s-1.8-3.4-1.8-5.6c0-2.1,0.5-4.7,1.5-7.9c1-3.2,2.3-6.6,3.8-10.3
			c1.6-3.7,3.3-7.4,5.2-11c1.8-3.7,3.7-7,5.5-10.1s3.5-5.5,4.8-7.4c1.4-1.8,2.9-3.6,4.5-5.4s3.4-3.3,5.3-4.6c2-1.2,4.2-1.9,6.6-1.9
			c1.7,0,3.1,0.5,4.3,1.4s1.8,2.3,1.8,4.1c0,0.7-0.1,1.6-0.4,2.5s-0.7,1.9-1.2,2.9c-4.4,7.7-9.7,14.8-15.8,21.3
			s-12.6,12.5-19.4,18.1c-0.3,1.1-0.6,2.1-0.8,2.9s-0.5,1.6-0.6,2.1c-0.1,0.4-0.1,0.7-0.1,1.1s0,0.8,0,1.1c0,1.7,0.3,3.3,0.9,4.6
			s1.5,2,2.9,2c1.3,0,2.9-0.6,4.8-1.9c1.9-1.3,3.8-2.8,5.8-4.7c2-1.8,3.7-3.6,5.3-5.4c1.6-1.7,2.7-3.1,3.4-4
			c0.2-0.2,0.4-0.3,0.7-0.3s0.5,0.2,0.7,0.4c0.2,0.3,0.2,0.7,0,1.1c-0.7,1.2-1.9,2.8-3.5,4.6c-1.6,1.8-3.4,3.6-5.3,5.5
			c-2,1.8-3.8,3.5-5.6,4.8C168.9,113.9,166.6,114.7,164.3,114.7z M164.2,94c2.8-1.9,5.6-4.3,8.6-7.3s5.9-6.3,8.7-9.8
			s5.5-7.1,7.8-10.5c2.3-3.5,4.2-6.6,5.7-9.4c0.4-0.8,0.7-1.5,0.9-2.1s0.3-1.2,0.3-1.7c0-1.4-0.6-2.1-1.7-2.1c-1,0-2.3,0.5-3.8,1.6
			c-3.9,3-7.5,6.9-10.8,11.7c-3.3,4.7-6.3,9.7-8.9,14.9C168.3,84.5,166.1,89.4,164.2,94z"/>
		<path class="st4" d="M213,114.7c-1.2,0-2.4-0.3-3.4-0.9s-1.8-1.7-2.3-3.3c-0.2-0.7-0.3-1.5-0.3-2.7c0-1.6,0.2-3.4,0.7-5.3
			c0.4-2,0.9-3.6,1.4-5c-0.4,0.2-1,0.8-2,1.9s-2.2,2.5-3.6,4c-1.4,1.6-3,3.1-4.7,4.7s-3.5,2.8-5.3,3.8s-3.6,1.5-5.3,1.5
			c-1.2,0-2.4-0.3-3.7-1s-2.3-1.6-3.2-2.7c-1.1-1.5-1.6-2.9-1.6-4.5c0-2,0.7-4,2-6.1s3.1-4.1,5.2-6.1c2.1-2,4.4-3.8,6.8-5.4
			c2.4-1.6,4.7-3,7-4.1s4-1.9,5.4-2.2c1.5-0.4,3.1-0.7,4.9-0.7c1,0,2.1,0.1,3.2,0.4s2,0.7,2.7,1.2c0.6,0.3,1,0.7,1.4,1.2
			s0.5,1,0.5,1.6s-0.2,0.8-0.8,0.5c-0.6-0.9-1.4-1.4-2.3-1.7c-1-0.2-2-0.4-3-0.4c-2.9,0-6.1,0.9-9.5,2.8s-6.6,4.1-9.3,6.6
			c-0.9,0.7-2,2-3.5,3.8s-2.8,3.7-4.1,5.8s-1.8,4-1.8,5.8c0,0.9,0.2,1.8,0.8,2.5c0.3,0.5,0.8,0.8,1.4,0.8c1,0,2.4-0.5,4.1-1.6
			c1.7-1.1,3.5-2.4,5.3-4s3.5-3.1,4.9-4.5c1.5-1.5,2.5-2.5,3.2-3.2c0.4-0.4,1.1-1.1,2.1-2.2s2.2-2.3,3.4-3.6
			c1.2-1.3,2.3-2.4,3.3-3.4c1-0.9,1.6-1.4,1.9-1.4c0.4,0,1,0.1,1.8,0.3c0.8,0.2,1.5,0.5,2.1,0.8s0.7,0.8,0.3,1.4
			c-1.9,2.8-3.4,5.6-4.5,8.6s-1.8,5.4-2,7.1c-0.1,0.3-0.1,0.6-0.1,0.8s0,0.5,0,0.8c0,2.9,1,4.3,3,4.3c1.1,0,2.5-0.7,4.3-2
			s3.7-2.9,5.5-4.7c1.9-1.8,3.6-3.6,5.2-5.3c1.5-1.7,2.6-3,3.2-3.8c0.2-0.2,0.4-0.3,0.7-0.3c0.3,0,0.5,0.1,0.8,0.4
			c0.2,0.2,0.2,0.6,0,0.9c-0.8,1.3-2,2.9-3.5,4.7c-1.5,1.8-3.2,3.6-5.1,5.4s-3.7,3.4-5.5,4.7c-0.9,0.7-2.1,1.4-3.6,1.9
			C215.9,114.4,214.4,114.7,213,114.7z"/>
		<path class="st4" d="M237.5,114.7c-1.3,0-2.5-0.3-3.5-0.9s-1.8-1.7-2.3-3.3c-0.1-0.2-0.1-0.4-0.2-0.7c0-0.2,0-0.5,0-0.8
			c0-1.5,0.3-3.3,1-5.4s1.5-4.3,2.4-6.3c-0.4,0.6-0.9,1.3-1.5,2.1s-1.4,1.9-2.5,3.2c-0.3,0.3-0.6,0.4-1,0.4c-0.5,0-0.8-0.3-0.8-0.9
			c0-0.4,0.1-0.8,0.4-1.1c1.9-2.4,3.6-4.5,5-6.4c1.5-1.9,2.6-3.5,3.3-4.8c0-0.1,0.2-0.6,0.7-1.4c0.4-0.8,1-1.8,1.7-3.2
			c-0.6,0.1-1.1,0.1-1.5,0.2c-0.4,0-0.7,0-1,0c-0.5,0-0.9-0.2-1.3-0.7c-0.4-0.4-0.4-1-0.1-1.6c0.4-1,1.2-1.6,2.4-1.7
			c1.2-0.1,2.3-0.2,3.3-0.3c0.1-0.1,0.2-0.2,0.4-0.2c0.9-1.6,1.7-3.2,2.5-4.7s1.5-2.8,2-3.8s0.8-1.5,0.8-1.6
			c1.5-2.3,2.4-3.8,2.8-4.6s1-1.2,1.7-1.4c0.8-0.1,1.6,0,2.5,0.1c0.9,0.2,1.5,0.5,1.8,1c0.2,0.3,0.3,0.7,0.3,1.1
			c0,0.7-0.2,1.3-0.4,1.9c-0.3,0.6-0.6,1.1-0.9,1.5c-0.3,0.5-0.7,0.8-1.1,1c-0.5,0.2-0.9,0.6-1.2,1.4c-0.7,1.4-1.5,2.9-2.4,4.5
			s-1.8,3.1-2.7,4.6l1.3-0.1c1.7-0.1,3.4-0.3,4.9-0.5s3.3-0.3,5.4-0.2c0.4,0,0.7,0,1.1,0.2s0.6,0.3,0.6,0.5c0,0.3-0.9,0.7-2.8,1.2
			c-0.7,0.3-2.3,0.6-4.7,0.9c-2.4,0.3-4.9,0.6-7.4,0.9c-0.7,1.4-1.4,2.5-2,3.4s-1,1.6-1.2,2c-1.6,3.3-3,6.3-4.3,9.1
			c-1.3,2.7-2,4.9-2.1,6.7c-0.1,0.3-0.1,0.6-0.1,0.8s0,0.5,0,0.8c0,2.9,0.9,4.3,2.8,4.3c1.2,0,2.6-0.6,4.5-1.9s3.7-2.8,5.5-4.7
			c1.9-1.8,3.6-3.6,5.2-5.3s2.6-3,3.2-3.8c0.2-0.2,0.4-0.3,0.7-0.3c0.3,0,0.5,0.1,0.7,0.3c0.2,0.2,0.2,0.5,0,0.9
			c-0.7,1.2-1.8,2.8-3.3,4.6c-1.6,1.8-3.3,3.7-5.2,5.5c-1.9,1.8-3.8,3.4-5.6,4.7c-0.9,0.7-2.1,1.4-3.5,1.9
			C240.4,114.4,239,114.7,237.5,114.7z"/>
		<path class="st4" d="M266.2,115.2c-3.3,0-6.1-0.8-8.5-2.3s-3.6-3.8-3.6-7c0-1.7,0.5-3.7,1.5-6.1c0.7-1.7,2.1-3.6,4-5.8
			c2-2.2,4.2-4.3,6.8-6.3c2.6-2.1,5.2-3.8,7.9-5.1c2.7-1.3,5.1-2,7.3-2c0.8,0,1.5,0.1,2.2,0.3c1.2,0.4,2.1,1.1,2.5,2.1
			s0.7,1.9,0.7,2.9c0,0.9-0.2,1.8-0.4,2.7c-0.3,0.9-0.7,1.6-1.1,2.3c-1.3,2-3.2,3.7-5.6,5.2s-4.9,2.7-7.4,3.6s-4.5,1.4-6.1,1.5h-0.2
			c-0.9,0-1.4-0.3-1.4-0.9c0-0.4,0.3-0.5,0.9-0.5c1.7-0.1,3.9-1,6.6-2.4c2.6-1.5,5-3,7-4.6c0.9-0.7,1.9-1.7,3.1-3s1.8-2.6,1.8-3.8
			c0-1.3-0.6-2-1.8-2c-0.7,0-1.3,0.2-2,0.4c-0.7,0.3-1.2,0.5-1.7,0.7c-2.1,1-4.4,2.6-7,4.7c-2.5,2.1-4.8,4.5-6.9,7.2
			c-2.1,2.6-3.5,5.3-4.3,8c-0.2,0.6-0.4,1.1-0.4,1.7s-0.1,1.1-0.1,1.6c0,1.7,0.6,3,1.7,3.7s2.5,1.1,4.1,1.1c2.4,0,4.8-0.5,7.4-1.6
			s5-2.4,7.4-4.1s4.6-3.5,6.6-5.4s3.7-3.8,5-5.6c0.2-0.3,0.5-0.5,0.8-0.5s0.5,0,0.5,0.2c0.3,0.1,0.4,0.3,0.4,0.6
			c0,0.3-0.1,0.6-0.2,0.9c-2,2.8-4.5,5.6-7.3,8.2c-2.9,2.7-6,4.9-9.4,6.7C273.5,114.3,269.9,115.2,266.2,115.2z"/>
		<path class="st4" d="M292.2,119.3c-2.9,0-4.3-0.8-4.3-2.4c0-1.2,0.6-2.3,1.8-3.6c0.9-0.9,2-1.7,3.2-2.3c1.2-0.6,1.9-0.9,2.2-0.9
			c0.4,0,0.6,0.2,0.6,0.4c0,0.3-0.1,0.5-0.5,0.7c-0.7,0.4-1.5,1-2.4,1.8s-1.4,1.6-1.4,2.4c0,1.2,0.7,1.7,2.1,1.7
			c1.7,0,3.4-0.5,5.2-1.5s3.5-2.2,5-3.7s2.8-3.1,3.8-4.6s1.5-2.9,1.5-4.1c0-0.9-0.3-1.8-1-2.6c-0.7-0.8-2-1.7-4-2.8
			c-1.4-0.8-2.7-1.6-4-2.5s-2.2-1.9-2.9-3.2c-0.6,1-1.3,2.2-2.2,3.6c-0.9,1.4-2,2.9-3.2,4.4c-0.4,0.4-0.9,0.7-1.3,0.7
			s-0.7-0.2-0.7-0.5c0-0.2,0.2-0.6,0.5-1.1c2-2.3,3.4-4.5,4.3-6.4s1.6-3.4,2-4.5c0.3-2.1,1.3-4.1,2.9-6c1.7-1.9,3.7-3.5,6.1-4.9
			s4.8-2.5,7.3-3.3s4.7-1.2,6.7-1.2s3.7,0.4,5.2,1.1s2.3,1.9,2.3,3.5c0,0.9-0.2,1.8-0.8,2.8c-0.7,1.4-1.7,2.6-3.3,3.7
			c-0.1,0.1-0.2,0.1-0.3,0.1c-0.6,0-0.9-0.2-0.9-0.8c0-0.4,0.2-0.7,0.5-1.1c0.6-0.5,1-1.1,1.4-1.8c0.4-0.7,0.5-1.4,0.5-2.1
			c0-1.3-0.8-2-2.3-2c-1.6,0-3.7,0.4-6.2,1.3s-4.9,2-7.1,3.4c-2.5,1.6-4.5,3.3-6.2,5.2s-2.5,3.5-2.5,5c0,0.7,0.2,1.4,0.7,2
			s1.4,1.3,2.8,2.1c0.7,0.4,1.7,1,3,1.7s2.4,1.3,3.4,1.9c3,1.8,4.5,3.7,4.5,5.8c0,1.7-0.7,3.3-2.2,5s-3.3,3.3-5.6,4.7
			s-4.7,2.5-7.2,3.4C296.8,118.9,294.4,119.3,292.2,119.3z"/>
		<path class="st4" d="M132.6,100.4c-1,2.4-6.7,6.6-12.7,8.9c-5.8,2.2-17.2,2.4-19.1,2.9c-0.5,0.1,0.6-0.1,0.4-0.5l2.2-0.7
			c4.2-0.8,12.1-1.7,14.7-2.6c3.1-1,5.9-2.8,6.8-3.4c3.5-2.7,4.5-3.9,4.8-4.3"/>
	</g>
</g>
</svg>
