<?xml version="1.0" encoding="utf-8"?>
<!-- Generator: Adobe Illustrator 28.0.0, SVG Export Plug-In . SVG Version: 6.00 Build 0)  -->
<svg version="1.1" id="Layer_1" xmlns="http://www.w3.org/2000/svg" xmlns:xlink="http://www.w3.org/1999/xlink" x="0px" y="0px"
	 viewBox="0 0 327 399.1" style="enable-background:new 0 0 327 399.1;" xml:space="preserve">
<style type="text/css">
	.st0{fill:#823CC6;}
	.st1{fill:#6C6B6B;}
	.st2{display:none;}
	.st3{display:inline;}
	.st4{fill:#B51385;}
	.st5{fill:#9E55D8;}
</style>
<g>
	<path class="st0" d="M162.2,0.1c0.4,1.3,0.9,2.6,1.1,3.9c1.1,9.4,1.1,18.6-0.3,28.1c-1,6.5-0.7,13.1-0.5,19.7c0.6,17,1.4,34,2.2,51
		c0.4,8.5,1.8,16.9,1.6,25.4c-0.2,9.9,0.6,19.6,2.2,29.3c0.3,1.9,1.2,3.2,2.8,4.3c9.4,6.5,18.8,13.1,28.3,19.5
		c3.3,2.2,6.9,4.1,10.5,5.8c5.4,2.5,7.9,6.9,8.8,12.4c0.9,5,1.8,10,2.8,15.1c0.1,0.4,0.3,0.7,0.9,1.1c0-1.4,0.1-2.9,0-4.3
		c-0.1-2-0.4-3.9-0.5-5.9c-0.1-1.7,0.7-2.5,2.5-2c1.4,0.4,2.4,0.2,3.7-1c1-0.9,3.1-1.2,4.6-1c1.3,0.2,1.7,0.1,2.1-1
		c1-2.6,1.7-2.7,3.9-0.9c2.3,1.9,4.7,3.1,7.8,3.6c4.8,0.7,9.5,2.1,12.1,6.9c1.9,3.5,2,7.2,1.3,11c-0.5,2.6,2.4,5,4.9,4.2
		c1.1-0.4,2.3-0.6,3.5-0.7c0.5,0,1.2,0.6,1.4,1.1c0.7,2.1,0.4,4-1.5,5.6c0.9,0.6,1.7,1.1,2.5,1.7c1.3,1.1,2.2,2.8,1.4,4.3
		c-0.5,0.9-2.1,1.7-3.2,1.8c-3.6,0.2-7.3,0.1-10.9,0.1c-5.9-0.1-11.9-0.4-17.8-0.6c-2.7-0.1-5.4,0-8-0.5c-2-0.4-4-1.2-5.7-2.3
		c-2-1.2-3.3-1.3-4.7,0.5c-1.3,1.6-3,1.5-4.8,1.7c-21.2,2.5-42.5,0.7-63.7,2c-1.5,0.1-3,0.2-4.4,0.5c-4.6,1-9,0.8-13.6-0.5
		c-5-1.4-10-0.5-14.8,1.3c-3.3,1.3-6.7,2.4-10.1,3.5c-7,2.1-14,1.7-20.8-0.7c-0.6-0.2-1.1-0.5-1.6-0.8c0-0.2-0.1-0.5-0.1-0.7
		c1.4-0.6,2.8-1.5,4.2-1.7c9.5-1.5,18.3-5,27-8.8c4.6-2.1,9.5-2.2,14.4-2.3c4,0,7.9-0.4,11.8-0.7c0-0.2,0.1-0.5,0.1-0.7
		c-0.4-0.2-0.7-0.5-1.1-0.6c-0.6-0.2-1.2-0.4-1.8-0.6c-5.6-2.6-11.1-2.8-16.7,0.3c-3,1.6-6.2,2.2-9.7,1.1c-1.7-0.5-3.8,0.2-5.6,0
		c-1.8-0.2-3.6-0.9-5.5-1.4c0-0.3,0.1-0.7,0.1-1c2.9-0.3,5.7-0.6,8.6-0.9c6.1-0.5,11-3.7,16.1-6.7c1-0.6,2.2-1.2,3.4-1.2
		c4,0,8,0.4,12,0.4c7.3,0,14.6-0.2,21.8-0.5c3.8-0.2,7.5-1,11.8-1.6c-4.4-7-7.8-13.8-13.7-18.9c-2.9-2.5-6-3.4-9.7-3.5
		c-8.2-0.2-16.5-0.5-24.2-4.3c-3.4-1.7-5.7-4.2-7.7-7.2c-1.7-2.5-3.2-5.1-4.9-7.6c-1.5-2.3-3.5-4-6.2-5.1
		c-7.1-2.8-14.1-5.9-21.1-8.8c-0.5-0.2-1-0.3-1.3-0.4c0.2,4.1,0.7,8,0.5,11.9c-0.4,9.1-2.7,17.8-5.3,26.5c-1.4,4.8-3,9.5-4.6,14.2
		c-0.6,1.8-0.2,2.7,1.6,3c1.2,0.3,2.5,0.5,3.7,0.9c3.2,1,4.2,3.2,2.1,5.9c-1.8,2.3-4.1,4.1-6.3,6.1c-1.9,1.8-4.1,3.3-5.6,5.3
		c-1.2,1.6-2,3.7-2.5,5.6c-0.6,2.2-1.5,4-3.6,5.2c-4.6,2.5-9.3,2.3-14,0.7c-0.5-0.2-0.9-0.6-1.8-1.2c1.6-1.1,2.9-2.1,4.3-2.9
		c2-1.2,4.8-1.8,6-3.5c1.2-1.7,0.6-4.5,1-6.7c0.7-4,1.8-7.9,2.4-11.9c0.6-3.8,1-7.6,1.3-11.5c0.6-9.6,0.8-19.2,1.5-28.8
		c0.8-10,1.8-20.1,3-30.1c0.6-5.1,3.5-8.2,8.7-9.8c10.9-3.4,21.6-2.6,32.3,0.3c6,1.6,12,3.4,18,5.1c1.2,0.4,1.9,0.3,2.4-1
		c2.9-8.1,5.9-16.2,8.8-24.3c1.8-5,1.2-10.1-0.2-14.9c-2.8-9.5-1.3-18.7,0.3-28c1.6-9,3.3-18,5-27c0.6-2.9,1.2-5.9,1.8-8.8
		c0.5-2.5-0.2-4.5-1.8-6.4c-2.9-3.1-2.8-4.8,0.2-7.9c1.2-1.2,2.5-2.5,3.9-3.5c2.9-1.9,4.1-4.7,4.2-8c0.1-2.6,0.1-5.1,1.9-7.3
		c0.8-1.1,0.7-2.9,1.1-4.4c0.2-0.8,0.8-1.5,1.1-2.2C161.7,0,162,0,162.2,0.1z"/>
</g>
<g>
	<g>
		<g>
			<g>
				<path class="st1" d="M52.3,302.2h-7.7v-34.9h-0.1l-2.8,6.8l-15.5,28.8H26l-15.5-29l-2.7-6.6H7.7v34.9H0v-51.6h6.6l17,32.1
					l2.5,6.1h0.1l2.5-6.1l17.1-32.1h6.4L52.3,302.2L52.3,302.2z"/>
				<path class="st1" d="M113.2,302.2h-8.3l-5.4-12l0.4-0.7H72.3l0.4,0.7l-5.4,12H59l23.4-51.6h7.5L113.2,302.2z M96.3,282.5
					l-0.8-0.8l-7.9-17.5l-1.5-4.7H86l-1.5,4.6l-8,17.6l-0.8,0.8H96.3L96.3,282.5z"/>
				<path class="st1" d="M166,302.2h-8.5l-6.7-13.6c-2.4-4.8-5.9-7-12.4-7h-11.6l0.8,0.7v20h-7.7v-51.6h23.4
					c9.8,0,18.2,5.1,18.2,15.5c0,6.3-4.5,11.2-9.7,13v0.1c2.1,0.9,4.5,3.1,6,6.2L166,302.2z M143.3,257.7h-16.5l0.8,0.8v15.2
					l-0.8,0.8h15.9c7.1,0,11-3.6,11-8.4C153.6,260,149.4,257.7,143.3,257.7z"/>
				<path class="st1" d="M180.1,302.2h-7.7v-51.6h7.7V302.2z"/>
				<path class="st1" d="M235.8,302.2H229l-25.9-33.4l-3.6-5.9h-0.1v39.3h-7.7v-51.6h6.8l26,33.5l3.4,5.8h0.1v-39.3h7.7L235.8,302.2
					L235.8,302.2z"/>
				<path class="st1" d="M296.8,302.2h-8.3l-5.4-12l0.4-0.7H256l0.4,0.7l-5.4,12h-8.3l23.4-51.6h7.5L296.8,302.2z M279.9,282.5
					l-0.8-0.8l-7.9-17.5l-1.5-4.7h-0.1l-1.5,4.6l-8,17.6l-0.8,0.8H279.9L279.9,282.5z"/>
			</g>
		</g>
		<g class="st2">
			<g class="st3">
				<path class="st4" d="M172.5,176.6c-2.7-1.8-3.6-3.8-3.8-6.6c0-0.5,0-1.1-0.1-1.7c-1.5-11.9-10.7-22.9-26.2-19.5
					c-3.1,0.7-5,0-6.9-1.9c-3.4-3.5-7.8-5.2-12.5-6.2c-5.6-1.2-10.7,0-15.2,3.5c-2.5,2-4.9,4.2-6.3,7c-1,1.9-2.3,2.4-4.2,2.5
					c-4.7,0.2-9.2,1.3-13.4,3.8c-7.3,4.5-11.4,12-9.6,20.4c1,4.5-0.2,7.4-2.9,11c-8.3,10.8-7.3,24.1,5.3,32.1c2,1.2,3.1,2.5,2.9,4.8
					c-0.1,0.8,0,1.7,0.1,2.5c1.5,11.8,10.4,23.4,26.4,19.7c3-0.7,4.7,0.1,6.5,1.9c4.6,4.5,10.2,6.4,15.3,6.7c8.1,0,14.3-3.3,18.3-10
					c1.6-2.6,3.3-3.8,6.2-3.6c1.2,0.1,2.5-0.2,3.7-0.5c12.6-2.1,20.4-12.9,17.8-25.3c-0.7-3.3-0.2-5.5,2-7.7c0.5-0.5,0.9-1,1.3-1.6
					C185.4,196.6,184,184.3,172.5,176.6z M133.4,158.3c4.3-4.1,13.8-4.7,19-1.6c4.5,2.8,7.4,6.5,8.5,11.7c0.3,1.4,1.1,3.1-0.6,4.1
					c-1.3,0.8-4.2-0.3-5.2-1.9c-1.5-2.4-3.4-4.3-6-5.6c-2.1-1.1-4.4-1.6-6.9-1.4c-0.5,0-1.1-0.2-1.6,0c-3.9,1.7-5.3-1.8-7.5-3.6
					C132.6,159.5,132.8,158.9,133.4,158.3z M121.6,179.9c-0.8,2.4-0.5,4.9-1.1,7.3c-0.3,1.1-0.4,2-1.3,2.8c-2.1,1.6-2.1,1.8-3.6-0.6
					c-1.2-1.8-2.4-3.7-3.3-5.7c-3-6.6,1-15.9,7.8-18.5c3.8-1.4,7.2-0.1,11.4,1.6C126.4,170.4,123.3,174.5,121.6,179.9z M144.7,171.9
					c3.6,1.9,5.6,5,6.6,8.9c-0.5,0.1-0.8,0.2-1,0.2c-7.9-1.1-14.6,1.3-20.4,6.7c-0.7,0.6-1.2,1.5-2.4,1.4c-2.8-0.2-3.7-1.1-3-3.9
					c0.6-2.4,1.6-4.6,2.4-7C129,171.9,140.1,169.5,144.7,171.9z M116.9,205.8c-2.4,2.2-5.4,3.5-8.3,4.9c-5.6,2.6-12-0.5-15.8-5
					c-3.2-3.9-3.5-8.2-0.2-14.3c3.4,4.5,7.2,7.8,12.3,9.4c2,0.6,4,1.1,6.1,1C113.9,201.6,115.9,202.7,116.9,205.8z M112.5,213.6
					c2.4-1.2,4.4-2.8,6.2-4.7c1.7-1.9,3.3-0.5,4.9-0.3c0.7,0.1,0.6,1.1,0.4,1.8c-0.8,2.6-1.3,5.4-2.3,7.9c-2.6,6.1-11.8,9.6-17.8,7
					c-3.8-1.7-5.7-4.9-7.2-9.4C102.7,216.8,107.7,216.1,112.5,213.6z M126.7,217.2c0.7-2.4,1.1-4.9,1-7.4c-0.1-2.4,1.8-2.9,3.2-3.8
					c0.7-0.5,1.2,0.3,1.6,0.9c1.6,2.5,3.2,5.2,4.2,8c1.8,5,0,9.3-3.2,13c-4.7,5.4-8.8,5.9-16.5,2.3
					C121.9,226.7,125.1,222.6,126.7,217.2z M131.4,191.2c2.3-2.2,5.4-3.5,8.3-4.9c7.3-3.5,15.8,2.8,17.8,7.9
					c1.5,3.9,0.4,7.5-1.7,11.6c-3.5-5-7.5-8.2-12.7-9.8c-1.7-0.5-3.4-1.1-5.2-0.9C134.8,195.5,132.6,194.4,131.4,191.2z
					 M102.2,163.2c1.5-4.7,3.2-9.3,7.2-12.3c2.9-2.2,6.7-2.5,10.3-2.5c4.7,0,8.8,1.9,12.2,5.3c-2,3.1-4.1,3.8-7.3,3.2
					c-5.6-1-10.3,1-13.7,5.7c-0.7,1-1.1,2.4-2.7,2.4c-1.8,0-3.6,0.1-5.4-0.1C102,164.8,102,163.9,102.2,163.2z M106.7,171.3
					c-0.1,2.5-0.8,4.9-0.3,7.4c0.9,5.3,3,10,6.8,13.9c0.6,0.7,1.5,1.1,1.7,2.3c0.2,2.9-1,4-3.9,3.3c-2.1-0.5-4.2-1.3-6.2-2
					c-6.1-2-8.1-8.8-7.8-15C97.2,176.5,100.5,173,106.7,171.3z M80.5,174.3c1.8-6.1,6.2-10.7,12.8-12.4c0.4-0.1,0.8-0.2,1.2-0.2
					c1.3-0.2,2.7-1.1,3.8,0.3c0.7,0.9-0.5,4.8-1.6,5.5c-5.9,3.6-8.1,8.8-7.1,15.5c0.3,1.9-0.2,3.1-1.6,4.3c-1,0.9-1.8,2-3,3.4
					C81.3,185.3,78.8,180,80.5,174.3z M74.6,208c-1.3-5.3-0.4-10.1,2.5-14.6c0.7-1.1,1.4-3,3-2.1c1.4,0.8,3.1,2,2.8,4.4
					c-0.4,2.1-1,4.3-0.5,6.7c0.8,3.5,2.1,6.7,5.2,8.6c3.5,2.1,2.9,5.2,2.8,8.4c0,0.9-0.6,1.1-1.4,1.1C83,220.2,76,213.9,74.6,208z
					 M101.8,242.6c-4.7-0.2-8-3.5-11-6.7c-2.1-2.3-3-5.2-3.6-8.3c-0.2-1-0.6-2.2,0.5-3.1c0.7-0.6,4.4,0,5,0.8
					c0.4,0.5,0.7,1.2,1.1,1.7c3.2,4.5,7.5,7.1,13.1,6.2c3.3-0.5,5.5,0.5,7.5,2.9c0.4,0.5,1.2,0.8,2.3,1.5
					C111.5,241.1,106.9,242.8,101.8,242.6z M134.7,247.9c-7,1.8-13,0.5-18.3-4.7c2-3,4.3-3.6,7.4-3c5.3,1.1,10.2-0.6,13-5.2
					c2.3-3.5,5.4-2.5,8.3-2.9c1-0.1,1,0.8,1,1.5C146.1,238.8,139.8,246.5,134.7,247.9z M141.5,225.8c1-5.7,0.3-10.8-2.1-15.6
					c-1.2-2.3-2.8-4.1-4.4-5.9c-0.9-1-1.5-1.8-1.2-3.2c0.5-2.5,0.7-2.7,3.3-2.1c2,0.4,4,0.9,6,1.6c6.8,2.4,10.8,11.8,7.9,18.5
					C149.7,221.8,146.5,224.3,141.5,225.8z M168,223.3c-3,6.3-7.4,10.9-14.5,12.2c-1.1,0.2-2.8,0.9-3.2-0.7
					c-0.3-1.5-0.8-3.3,0.6-4.7c0.7-0.7,1.6-1.1,2.4-1.6c4.4-3.3,6.6-7.8,5.8-13.3c-0.4-2.6-0.2-4.5,2-6c0.9-0.6,1.2-1.8,2.9-2.4
					c2.9,4.2,4.3,8.7,4.5,13.6C168.5,221.4,168.4,222.4,168,223.3z M171,204c-0.7,1-1.4,2.6-2.7,1.8s-2.8-1.9-2.9-3.7
					c0-0.7,0.4-1.3,0.5-2c0.9-5.9-0.5-10.9-5.6-14.6c-2.4-1.7-3.3-4.9-2.4-7.6c0.5-1.6,1.7-1.1,2.7-0.9c8.7,1.9,13.8,8.1,13.8,18
					C174.3,197.6,173,200.9,171,204z"/>
				<path class="st4" d="M71.8,223.7c-1.7-0.1-2.8,0.8-3,2.6c-0.2,1.9,1.3,3.7,3,3.7c1.6,0,3-1.5,3.1-3.2S73.7,223.8,71.8,223.7z"/>
				<path class="st4" d="M96.1,149.2c1.6,0,2.9-1.4,3-3.3c0-1.7-1-2.9-2.7-2.9c-1.8-0.1-3.6,1.6-3.6,3.2
					C92.8,147.8,94.4,149.3,96.1,149.2z"/>
				<path class="st4" d="M140.9,144.5c1.8,0.1,3.5-1.1,3.6-2.6c0.2-1.7-1.5-3.4-3.3-3.5c-1.7-0.1-2.9,1-3,2.7
					C138,142.9,139.2,144.4,140.9,144.5z"/>
				<path class="st4" d="M177.1,173.4c1.6-0.1,2.7-1.3,2.6-3.1c-0.1-1.7-1.6-3.3-3.1-3.3c-1.6,0-3,1.6-3.1,3.3
					C173.5,172.1,175.1,173.5,177.1,173.4z"/>
				<path class="st4" d="M67.4,184.4c1.7-0.2,2.9-1.4,2.8-2.9c0-1.8-1.5-3.4-3.1-3.3c-1.6,0.1-3,1.7-3.1,3.4
					C64.1,183.3,65.5,184.6,67.4,184.4z"/>
				<path class="st4" d="M152.3,247.8c-1.7,0-3.1,1.8-2.9,3.7c0.1,1.6,1.5,2.6,3.1,2.5c1.7-0.2,3.2-1.7,3.2-3.2
					C155.6,249.2,153.9,247.7,152.3,247.8z"/>
				<path class="st4" d="M107.5,252.5c-1.8-0.1-3.7,1.5-3.7,3s1.7,2.9,3.3,3c1.7,0.1,2.9-1,3-2.6
					C110.3,254.1,109.1,252.6,107.5,252.5z"/>
				<path class="st4" d="M181.5,212.6c-1.9-0.1-3.3,1.1-3.4,2.8c0,1.8,1.3,3.5,2.9,3.5c1.5,0,3-1.6,3.1-3.3
					C184.3,213.9,183.2,212.7,181.5,212.6z"/>
			</g>
		</g>
	</g>
	<g>
		<g>
			<path class="st5" d="M70.9,399.1c-0.9,0-1.3-0.4-1.3-1.1c0-0.3,0.1-0.7,0.3-1.2c0.9-1.9,2.1-4.7,3.7-8.4c1.6-3.7,3.3-8,5.3-12.8
				c1.9-4.8,3.8-9.8,5.8-14.8c1.7-4.5,3.4-8.9,5-13.1s3-8.1,4.1-11.6s1.6-6.1,1.6-8c0-0.6,0.4-0.9,1.2-1c0.8-0.1,1.5-0.2,2.3-0.2
				c2.4,0,3.6,0.8,3.6,2.4c0,1.3-0.7,3-2.2,5.1c-1.3,2.1-2.4,4.2-3.4,6.5s-1.9,4.5-2.8,6.8c1.7-2.3,3.4-4.6,4.9-6.8
				c1.5-2.2,3.3-4.2,5.3-5.8c1.6-1.2,3.2-2.2,4.7-3s3.2-1.1,5-1.1c1.9,0,3.8,0.5,5.6,1.4c1.8,0.9,3,2.3,3.3,4.3
				c0.1,0.2,0.1,0.5,0.1,0.7s0,0.5,0,0.7c0,2.5-0.7,5-2.2,7.4s-3.2,4.6-5.3,6.5c-2,1.9-3.9,3.4-5.6,4.6c-6.7,4-8.9,4.5-5.3,2.8
				c-2.1,1-4.2,1.9-6.5,2.6s-4.5,1.1-6.6,1.1c-1.3,0-2.4-0.2-3.3-0.4c-0.9,2.2-2,5-3.3,8.4s-2.4,6.8-3.5,10.2
				c-0.5,1.5-0.7,2.6-0.5,3.5s0,2-0.5,3.4c-0.4,1.5-0.9,2.8-1.4,4.2c-0.5,1.3-1.1,2.6-1.7,3.8c-0.1,0.3-0.6,0.7-1.4,1.2
				s-1.6,0.9-2.6,1.3C72.5,398.9,71.6,399.1,70.9,399.1z M89.2,360.8c2.3,0,4.7-0.5,7.3-1.6c2.5-1.1,5-2.5,7.5-4.3s4.7-3.8,6.7-5.9
				s3.6-4.2,4.8-6.2c1.5-2.3,2.2-4.5,2.2-6.4c0-2.2-1-3.4-2.9-3.4c-0.5,0-1.1,0.1-1.8,0.3c-0.7,0.2-1.6,0.5-2.5,1
				c-3.8,2-7,4.4-9.4,7.1c-2.5,2.7-4.6,5.7-6.3,9C92.9,353.5,91.1,357,89.2,360.8z"/>
			<path class="st5" d="M137.5,363.1c-1.3,0-2.5-0.3-3.5-0.9s-1.8-1.7-2.3-3.3c-0.1-0.2-0.1-0.4-0.2-0.7c0-0.2,0-0.5,0-0.8
				c0-1.5,0.3-3.3,1-5.4c0.7-2.2,1.5-4.3,2.4-6.3c-0.4,0.6-0.9,1.3-1.5,2.1s-1.4,1.9-2.5,3.2c-0.3,0.3-0.6,0.4-1,0.4
				c-0.5,0-0.8-0.3-0.8-0.9c0-0.4,0.1-0.8,0.4-1.1c1.9-2.4,3.6-4.5,5-6.4c1.5-1.9,2.6-3.5,3.3-4.8c0-0.1,0-0.1,0-0.2
				c0,0,0-0.1,0-0.2c0-0.2,0.1-0.5,0.3-1c0.6-1.7,1.2-3.2,1.8-4.4c0.6-1.2,1.3-1.9,2-2c0.1,0,0.3,0,0.4,0c0.1,0,0.3,0,0.4,0
				c0.8,0,1.5,0.2,2.2,0.5c0.7,0.4,1,0.9,1,1.6s-0.2,1.5-0.7,2.4s-1.1,2.1-1.8,3.5c-1.6,3.3-3,6.3-4.3,9.1c-1.3,2.7-2,4.9-2.1,6.7
				c-0.1,0.3-0.1,0.6-0.1,0.8s0,0.5,0,0.8c0,2.9,0.9,4.3,2.8,4.3c1.2,0,2.6-0.6,4.5-1.9s3.7-2.8,5.5-4.7c1.9-1.8,3.6-3.6,5.2-5.3
				s2.6-3,3.2-3.8c0.2-0.2,0.4-0.3,0.7-0.3s0.5,0.1,0.7,0.3c0.2,0.2,0.2,0.5,0,0.9c-0.7,1.2-1.8,2.8-3.3,4.6
				c-1.6,1.8-3.3,3.7-5.2,5.5s-3.8,3.4-5.6,4.7c-0.9,0.7-2.1,1.4-3.5,1.9C140.3,362.8,138.9,363.1,137.5,363.1z M149.3,324.2
				c-0.9,0-1.9-0.1-2.9-0.3s-1.5-0.8-1.5-2c0-0.2,0.5-0.7,1.5-1.5s2-1.6,3-2.4s1.7-1.3,1.9-1.5c1.2-1,2-1.5,2.3-1.5
				c0.4,0,0.4,0.5,0,1.4s-0.5,1.8-0.5,2.5c0,0.4-0.2,1-0.7,1.8c-0.4,0.9-0.9,1.7-1.5,2.4S149.7,324.2,149.3,324.2z"/>
			<path class="st5" d="M164.3,363.1c-3,0-5.2-0.8-6.3-2.3s-1.8-3.4-1.8-5.6c0-2.1,0.5-4.7,1.5-7.9c1-3.2,2.3-6.6,3.8-10.3
				c1.6-3.7,3.3-7.4,5.2-11c1.8-3.7,3.7-7,5.5-10.1s3.5-5.5,4.8-7.4c1.4-1.8,2.9-3.6,4.5-5.4s3.4-3.3,5.3-4.6c2-1.2,4.2-1.9,6.6-1.9
				c1.7,0,3.1,0.5,4.3,1.4s1.8,2.3,1.8,4.1c0,0.7-0.1,1.6-0.4,2.5s-0.7,1.9-1.2,2.9c-4.4,7.7-9.7,14.8-15.8,21.3
				s-12.6,12.5-19.4,18.1c-0.3,1.1-0.6,2.1-0.8,2.9s-0.5,1.6-0.6,2.1c-0.1,0.4-0.1,0.7-0.1,1.1s0,0.8,0,1.1c0,1.7,0.3,3.3,0.9,4.6
				s1.5,2,2.9,2c1.3,0,2.9-0.6,4.8-1.9c1.9-1.3,3.8-2.8,5.8-4.7c2-1.8,3.7-3.6,5.3-5.4c1.6-1.7,2.7-3.1,3.4-4
				c0.2-0.2,0.4-0.3,0.7-0.3s0.5,0.2,0.7,0.4c0.2,0.3,0.2,0.7,0,1.1c-0.7,1.2-1.9,2.8-3.5,4.6c-1.6,1.8-3.4,3.6-5.3,5.5
				c-2,1.8-3.8,3.5-5.6,4.8C168.9,362.3,166.6,363.1,164.3,363.1z M164.2,342.4c2.8-1.9,5.6-4.3,8.6-7.3s5.9-6.3,8.7-9.8
				s5.5-7.1,7.8-10.5c2.3-3.5,4.2-6.6,5.7-9.4c0.4-0.8,0.7-1.5,0.9-2.1s0.3-1.2,0.3-1.7c0-1.4-0.6-2.1-1.7-2.1c-1,0-2.3,0.5-3.8,1.6
				c-3.9,3-7.5,6.9-10.8,11.7c-3.3,4.7-6.3,9.7-8.9,14.9C168.3,332.9,166.1,337.8,164.2,342.4z"/>
			<path class="st5" d="M213,363.1c-1.2,0-2.4-0.3-3.4-0.9s-1.8-1.7-2.3-3.3c-0.2-0.7-0.3-1.5-0.3-2.7c0-1.6,0.2-3.4,0.7-5.3
				c0.4-2,0.9-3.6,1.4-5c-0.4,0.2-1,0.8-2,1.9s-2.2,2.5-3.6,4c-1.4,1.6-3,3.1-4.7,4.7s-3.5,2.8-5.3,3.8s-3.6,1.5-5.3,1.5
				c-1.2,0-2.4-0.3-3.7-1s-2.3-1.6-3.2-2.7c-1.1-1.5-1.6-2.9-1.6-4.5c0-2,0.7-4,2-6.1s3.1-4.1,5.2-6.1c2.1-2,4.4-3.8,6.8-5.4
				c2.4-1.6,4.7-3,7-4.1s4-1.9,5.4-2.2c1.5-0.4,3.1-0.7,4.9-0.7c1,0,2.1,0.1,3.2,0.4s2,0.7,2.7,1.2c0.6,0.3,1,0.7,1.4,1.2
				s0.5,1,0.5,1.6s-0.2,0.8-0.8,0.5c-0.6-0.9-1.4-1.4-2.3-1.7c-1-0.2-2-0.4-3-0.4c-2.9,0-6.1,0.9-9.5,2.8s-6.6,4.1-9.3,6.6
				c-0.9,0.7-2,2-3.5,3.8s-2.8,3.7-4.1,5.8s-1.8,4-1.8,5.8c0,0.9,0.2,1.8,0.8,2.5c0.3,0.5,0.8,0.8,1.4,0.8c1,0,2.4-0.5,4.1-1.6
				c1.7-1.1,3.5-2.4,5.3-4s3.5-3.1,4.9-4.5c1.5-1.5,2.5-2.5,3.2-3.2c0.4-0.4,1.1-1.1,2.1-2.2s2.2-2.3,3.4-3.6
				c1.2-1.3,2.3-2.4,3.3-3.4c1-0.9,1.6-1.4,1.9-1.4c0.4,0,1,0.1,1.8,0.3c0.8,0.2,1.5,0.5,2.1,0.8s0.7,0.8,0.3,1.4
				c-1.9,2.8-3.4,5.6-4.5,8.6s-1.8,5.4-2,7.1c-0.1,0.3-0.1,0.6-0.1,0.8s0,0.5,0,0.8c0,2.9,1,4.3,3,4.3c1.1,0,2.5-0.7,4.3-2
				s3.7-2.9,5.5-4.7c1.9-1.8,3.6-3.6,5.2-5.3c1.5-1.7,2.6-3,3.2-3.8c0.2-0.2,0.4-0.3,0.7-0.3c0.3,0,0.5,0.1,0.8,0.4
				c0.2,0.2,0.2,0.6,0,0.9c-0.8,1.3-2,2.9-3.5,4.7c-1.5,1.8-3.2,3.6-5.1,5.4s-3.7,3.4-5.5,4.7c-0.9,0.7-2.1,1.4-3.6,1.9
				C215.9,362.8,214.4,363.1,213,363.1z"/>
			<path class="st5" d="M237.5,363.1c-1.3,0-2.5-0.3-3.5-0.9s-1.8-1.7-2.3-3.3c-0.1-0.2-0.1-0.4-0.2-0.7c0-0.2,0-0.5,0-0.8
				c0-1.5,0.3-3.3,1-5.4s1.5-4.3,2.4-6.3c-0.4,0.6-0.9,1.3-1.5,2.1s-1.4,1.9-2.5,3.2c-0.3,0.3-0.6,0.4-1,0.4c-0.5,0-0.8-0.3-0.8-0.9
				c0-0.4,0.1-0.8,0.4-1.1c1.9-2.4,3.6-4.5,5-6.4c1.5-1.9,2.6-3.5,3.3-4.8c0-0.1,0.2-0.6,0.7-1.4c0.4-0.8,1-1.8,1.7-3.2
				c-0.6,0.1-1.1,0.1-1.5,0.2c-0.4,0-0.7,0-1,0c-0.5,0-0.9-0.2-1.3-0.7c-0.4-0.4-0.4-1-0.1-1.6c0.4-1,1.2-1.6,2.4-1.7
				c1.2-0.1,2.3-0.2,3.3-0.3c0.1-0.1,0.2-0.2,0.4-0.2c0.9-1.6,1.7-3.2,2.5-4.7s1.5-2.8,2-3.8s0.8-1.5,0.8-1.6
				c1.5-2.3,2.4-3.8,2.8-4.6s1-1.2,1.7-1.4c0.8-0.1,1.6,0,2.5,0.1c0.9,0.2,1.5,0.5,1.8,1c0.2,0.3,0.3,0.7,0.3,1.1
				c0,0.7-0.2,1.3-0.4,1.9c-0.3,0.6-0.6,1.1-0.9,1.5c-0.3,0.5-0.7,0.8-1.1,1c-0.5,0.2-0.9,0.6-1.2,1.4c-0.7,1.4-1.5,2.9-2.4,4.5
				s-1.8,3.1-2.7,4.6l1.3-0.1c1.7-0.1,3.4-0.3,4.9-0.5s3.3-0.3,5.4-0.2c0.4,0,0.7,0,1.1,0.2s0.6,0.3,0.6,0.5c0,0.3-0.9,0.7-2.8,1.2
				c-0.7,0.3-2.3,0.6-4.7,0.9c-2.4,0.3-4.9,0.6-7.4,0.9c-0.7,1.4-1.4,2.5-2,3.4s-1,1.6-1.2,2c-1.6,3.3-3,6.3-4.3,9.1
				c-1.3,2.7-2,4.9-2.1,6.7c-0.1,0.3-0.1,0.6-0.1,0.8s0,0.5,0,0.8c0,2.9,0.9,4.3,2.8,4.3c1.2,0,2.6-0.6,4.5-1.9s3.7-2.8,5.5-4.7
				c1.9-1.8,3.6-3.6,5.2-5.3s2.6-3,3.2-3.8c0.2-0.2,0.4-0.3,0.7-0.3c0.3,0,0.5,0.1,0.7,0.3c0.2,0.2,0.2,0.5,0,0.9
				c-0.7,1.2-1.8,2.8-3.3,4.6c-1.6,1.8-3.3,3.7-5.2,5.5c-1.9,1.8-3.8,3.4-5.6,4.7c-0.9,0.7-2.1,1.4-3.5,1.9
				C240.4,362.8,239,363.1,237.5,363.1z"/>
			<path class="st5" d="M266.2,363.6c-3.3,0-6.1-0.8-8.5-2.3s-3.6-3.8-3.6-7c0-1.7,0.5-3.7,1.5-6.1c0.7-1.7,2.1-3.6,4-5.8
				c2-2.2,4.2-4.3,6.8-6.3c2.6-2.1,5.2-3.8,7.9-5.1c2.7-1.3,5.1-2,7.3-2c0.8,0,1.5,0.1,2.2,0.3c1.2,0.4,2.1,1.1,2.5,2.1
				s0.7,1.9,0.7,2.9c0,0.9-0.2,1.8-0.4,2.7c-0.3,0.9-0.7,1.6-1.1,2.3c-1.3,2-3.2,3.7-5.6,5.2s-4.9,2.7-7.4,3.6s-4.5,1.4-6.1,1.5
				h-0.2c-0.9,0-1.4-0.3-1.4-0.9c0-0.4,0.3-0.5,0.9-0.5c1.7-0.1,3.9-1,6.6-2.4c2.6-1.5,5-3,7-4.6c0.9-0.7,1.9-1.7,3.1-3
				s1.8-2.6,1.8-3.8c0-1.3-0.6-2-1.8-2c-0.7,0-1.3,0.2-2,0.4c-0.7,0.3-1.2,0.5-1.7,0.7c-2.1,1-4.4,2.6-7,4.7
				c-2.5,2.1-4.8,4.5-6.9,7.2c-2.1,2.6-3.5,5.3-4.3,8c-0.2,0.6-0.4,1.1-0.4,1.7s-0.1,1.1-0.1,1.6c0,1.7,0.6,3,1.7,3.7
				s2.5,1.1,4.1,1.1c2.4,0,4.8-0.5,7.4-1.6s5-2.4,7.4-4.1s4.6-3.5,6.6-5.4s3.7-3.8,5-5.6c0.2-0.3,0.5-0.5,0.8-0.5s0.5,0,0.5,0.2
				c0.3,0.1,0.4,0.3,0.4,0.6c0,0.3-0.1,0.6-0.2,0.9c-2,2.8-4.5,5.6-7.3,8.2c-2.9,2.7-6,4.9-9.4,6.7
				C273.5,362.7,269.9,363.6,266.2,363.6z"/>
			<path class="st5" d="M292.2,367.7c-2.9,0-4.3-0.8-4.3-2.4c0-1.2,0.6-2.3,1.8-3.6c0.9-0.9,2-1.7,3.2-2.3c1.2-0.6,1.9-0.9,2.2-0.9
				c0.4,0,0.6,0.2,0.6,0.4c0,0.3-0.1,0.5-0.5,0.7c-0.7,0.4-1.5,1-2.4,1.8s-1.4,1.6-1.4,2.4c0,1.2,0.7,1.7,2.1,1.7
				c1.7,0,3.4-0.5,5.2-1.5s3.5-2.2,5-3.7s2.8-3.1,3.8-4.6s1.5-2.9,1.5-4.1c0-0.9-0.3-1.8-1-2.6c-0.7-0.8-2-1.7-4-2.8
				c-1.4-0.8-2.7-1.6-4-2.5s-2.2-1.9-2.9-3.2c-0.6,1-1.3,2.2-2.2,3.6c-0.9,1.4-2,2.9-3.2,4.4c-0.4,0.4-0.9,0.7-1.3,0.7
				s-0.7-0.2-0.7-0.5c0-0.2,0.2-0.6,0.5-1.1c2-2.3,3.4-4.5,4.3-6.4s1.6-3.4,2-4.5c0.3-2.1,1.3-4.1,2.9-6c1.7-1.9,3.7-3.5,6.1-4.9
				s4.8-2.5,7.3-3.3s4.7-1.2,6.7-1.2s3.7,0.4,5.2,1.1s2.3,1.9,2.3,3.5c0,0.9-0.2,1.8-0.8,2.8c-0.7,1.4-1.7,2.6-3.3,3.7
				c-0.1,0.1-0.2,0.1-0.3,0.1c-0.6,0-0.9-0.2-0.9-0.8c0-0.4,0.2-0.7,0.5-1.1c0.6-0.5,1-1.1,1.4-1.8c0.4-0.7,0.5-1.4,0.5-2.1
				c0-1.3-0.8-2-2.3-2c-1.6,0-3.7,0.4-6.2,1.3s-4.9,2-7.1,3.4c-2.5,1.6-4.5,3.3-6.2,5.2s-2.5,3.5-2.5,5c0,0.7,0.2,1.4,0.7,2
				s1.4,1.3,2.8,2.1c0.7,0.4,1.7,1,3,1.7s2.4,1.3,3.4,1.9c3,1.8,4.5,3.7,4.5,5.8c0,1.7-0.7,3.3-2.2,5s-3.3,3.3-5.6,4.7
				s-4.7,2.5-7.2,3.4C296.8,367.3,294.4,367.7,292.2,367.7z"/>
			<path class="st5" d="M132.6,348.8c-1,2.4-6.7,6.6-12.7,8.9c-5.8,2.2-17.2,2.4-19.1,2.9c-0.5,0.1,0.6-0.1,0.4-0.5l2.2-0.7
				c4.2-0.8,12.1-1.7,14.7-2.6c3.1-1,5.9-2.8,6.8-3.4c3.5-2.7,4.5-3.9,4.8-4.3"/>
		</g>
	</g>
</g>
</svg>
